# xmcd
#
# Track frame offsets: 
#        150
#        63310
#        102896
#        136834
#        175374
#        210836
#        236023
#        258605
#        292569
#        320677
#
# Disc length: 4712 seconds
#
# Revision: 0
# Processed by: cddbd v1.5.2PL0 Copyright (c) Steve Scherf et al.
# Submitted via: ExactAudioCopy v1.3
#
DISCID=8812660a
DTITLE=Harvey Mandel - Live At Broadway Studios
DYEAR=2018
DGENRE=Fusion
TTITLE0=Wade in the Water
TTITLE1=Before Six
TTITLE2=Blues Shuffle
TTITLE3=Blues
TTITLE4=Christo Redentor
TTITLE5=Emerald Triangle
TTITLE6=Experimental Song
TTITLE7=Midnight Sun
TTITLE8=The Bad Monster
TTITLE9=The Snake
EXTD=
EXTT0=
EXTT1=
EXTT2=
EXTT3=
EXTT4=
EXTT5=
EXTT6=
EXTT7=
EXTT8=
EXTT9=
PLAYORDER=
